Coordinates																																					
version=1																																					
nRows=22																																					
nColumns=38																																					
inDegrees=yes																																					
																																					
"Units are S.I. units (second, meters, Newtons, ...)"																																					
Angles are in degrees.																																					
																																					
endheader																																					
time	pelvis_tilt	pelvis_list	pelvis_rotation	pelvis_tx	pelvis_ty	pelvis_tz	hip_flexion_r	hip_adduction_r	hip_rotation_r	knee_angle_r	ankle_angle_r	subtalar_angle_r	mtp_angle_r	hip_flexion_l	hip_adduction_l	hip_rotation_l	knee_angle_l	ankle_angle_l	subtalar_angle_l	mtp_angle_l	lumbar_extension	lumbar_bending	lumbar_rotation	arm_flex_r	arm_add_r	arm_rot_r	elbow_flex_r	pro_sup_r	wrist_flex_r	wrist_dev_r	arm_flex_l	arm_add_l	arm_rot_l	elbow_flex_l	pro_sup_l	wrist_flex_l	wrist_dev_l
0.37	2.12299239	1.02707426	-0.96394841	0.62442034	0.04312138	-0.01970904	24.75893191	-1.43818325	-1.17696557	-51.53765919	-3.06882662	-4.51120096	20.69664484	-5.87591377	4.94683443	0.13822748	-9.13197684	5.81310334	5.63373343	-0.43219972	-16.38213411	0.13315913	-1.68814262	-10.22728118	-22.31038212	13.21320374	45.79520789	0.49307435	0	0	3.29730801	-20.2173103	3.71065126	63.95752614	0	0	0
0.38	1.83226027	1.36651666	-0.93530143	0.63170208	0.04142507	-0.02563164	25.34157368	-1.80121137	-1.30577358	-48.40124573	-2.89055334	-4.69215219	20.57140042	-6.64055984	5.30764143	0.2002791	-8.55334977	6.08120949	5.72132594	-0.34098813	-15.9653142	-0.17921686	-2.13157979	-10.47625408	-22.40795385	13.15722628	45.76632304	0.50018245	0	0	3.70387171	-20.30828579	3.66835138	64.2980732	0.00765645	0	0
0.39	2.19639194	1.46595134	-0.5548745	0.65075567	0.04094093	-0.02769828	24.86482317	-2.06075883	-1.8467563	-44.7366425	-2.66917897	-5.02250876	19.58429972	-8.15171801	5.37390925	0.88784458	-7.90824756	6.06571339	5.53058274	-0.07926824	-16.57555278	-0.13269157	-2.30433025	-11.37670207	-22.46807778	12.56072746	46.27140545	0.61750841	0	0	3.75511557	-20.65295814	3.85568856	66.86857608	0	0	0
0.4	1.86554632	1.89443126	-0.57718121	0.65756379	0.03875999	-0.03505241	25.23185026	-2.47144904	-1.90231073	-41.09694286	-2.59129984	-5.09477441	19.43280269	-8.86964402	5.81663169	0.94382921	-7.37357738	6.33366308	5.59616964	0.02104826	-16.09132274	-0.59874043	-2.69017471	-11.60626346	-22.57098694	12.50339967	46.23520836	0.62485601	0	0	4.09642024	-20.70602567	3.80531617	67.15721663	0.00813367	0	0
0.41	2.26910956	2.05440044	-0.18834106	0.67769398	0.03795001	-0.03824195	24.4109383	-2.83787495	-2.67217294	-36.89645526	-2.63035578	-5.10353573	18.2060211	-10.48467107	5.91736288	1.69972035	-6.67552983	6.33352484	5.3581418	0.35860883	-16.6882118	-0.60038119	-2.86848939	-12.46097899	-22.56464394	11.91791987	46.53420228	0.73794501	0	0	4.21017486	-20.86276219	3.82183501	69.30345363	0.00298738	0	0
0.42	2.0011991	2.49711278	0.05073006	0.68581194	0.03574507	-0.04596967	24.36478386	-3.36516946	-3.15237385	-32.71294156	-2.87179082	-5.20271634	17.70517668	-11.24017047	6.3028063	2.00212862	-6.22596493	6.42682798	5.55742068	0.51114888	-16.36035646	-1.05867161	-3.27009642	-13.02028554	-22.4919268	11.79612165	46.50516397	0.75624648	0	0	4.45351082	-20.98744578	3.73188092	69.87033736	0.01402008	0	0
0.43	2.37513645	2.64756807	0.19019195	0.70565452	0.03436836	-0.04863235	23.38146443	-3.5844442	-3.87432308	-28.16091303	-3.07811544	-4.75548009	16.08599591	-12.79356442	6.4038074	2.37953654	-5.65519714	6.63958101	5.44462554	1.0781149	-16.79508482	-1.08201862	-3.4593019	-13.52898021	-22.58194951	10.99052961	46.87215647	0.91709699	0	0	4.39575295	-21.07679095	3.70292586	71.70974705	0.01560096	0	0
0.44	1.99559369	3.14930712	0.21694602	0.71231862	0.03174318	-0.05689845	23.22655682	-4.02170751	-4.33428091	-23.63177442	-3.62095937	-4.51988871	15.72237963	-13.42234276	6.86678388	2.51363997	-5.28847564	6.80368149	5.60204825	1.21655053	-16.19582196	-1.67053044	-3.75123036	-13.93180656	-22.52297986	10.93271982	46.8196603	0.9236833	0	0	4.61232988	-21.18388262	3.59997171	72.02505572	0.02801721	0	0
0.45	1.81064279	3.39858716	0.76678589	0.72237603	0.02941014	-0.06143275	22.58220815	-4.39351714	-5.59394758	-18.88349365	-3.87901947	-3.77767941	15.21458826	-14.10496078	6.94778658	3.00528792	-5.25283756	6.95670649	5.93958269	1.49380905	-16.07074328	-1.82814448	-4.08113736	-14.59246042	-22.37476793	10.79074957	46.72885181	0.94458825	0	0	4.80943826	-21.14712524	3.54064172	72.74486495	0.03585104	0	0
0.46	1.89850284	3.70210708	1.10479124	0.73757844	0.02742591	-0.06658593	21.6364785	-4.67574572	-6.68191238	-14.26147637	-3.83528628	-2.39340535	14.67078999	-15.12626688	7.10868042	3.361202	-5.16285585	7.17167862	6.16917598	1.88823331	-16.10621404	-2.1074179	-4.39508595	-15.10237756	-22.28779826	10.5155304	46.72996745	0.99477571	0	0	4.86722254	-21.1607682	3.50361527	73.53721956	0.04002225	0	0
0.47	1.58129438	4.10228856	1.12078762	0.74555408	0.02450482	-0.07280354	21.33987321	-4.78915948	-6.43914764	-10.14989815	-3.32117403	-1.83523913	14.63112224	-15.60007387	7.4563867	3.44607452	-5.28113628	7.55687973	6.22026766	2.07255711	-15.52937643	-2.55838027	-4.6587487	-15.16549284	-22.42153735	10.40363605	46.74343754	1.01531326	0	0	5.12088984	-21.14767817	3.47599803	73.82544383	0.04506033	0	0
0.48	2.56273373	4.13381075	1.79064242	0.77698101	0.02388738	-0.07343894	19.22461069	-4.86191583	-8.68792067	-5.88620393	-2.5127633	1.89352261	13.18860909	-17.57832558	7.15175208	3.90245092	-5.23714801	7.76180561	6.80188627	3.24367654	-16.74106513	-2.33019303	-5.30165172	-15.60840408	-22.24148875	9.49692178	46.97662288	1.19789515	0	0	4.87346998	-21.35470819	3.48164779	75.53626209	0.0424042	0	0
0.49	2.18908433	4.44933081	2.00801041	0.78414994	0.02100501	-0.07806972	18.94991266	-4.91627694	-8.13976313	-2.40670842	-2.12779247	2.37552661	13.10769243	-17.80948728	7.3264377	4.10323756	-5.70754481	7.96157455	6.9467937	3.41132665	-16.19806518	-2.70743586	-5.58754333	-15.83006471	-22.17822132	9.45143524	46.94072715	1.20439913	0	0	5.01161556	-21.36350421	3.44473072	75.72194516	0.04749535	0	0
0.5	2.77609413	4.48124043	2.76052775	0.80857025	0.01999277	-0.07830432	17.37861472	-4.86057322	-9.30192865	0.94084139	-1.58550362	4.73256743	10.72495973	-19.12581121	6.92916444	4.3624204	-6.07543024	8.05799828	7.849255	5.21132866	-17.01076719	-2.5125512	-6.42126362	-16.06842198	-21.74053095	8.39143947	46.89360893	1.41877042	0	0	4.57540017	-21.64481379	3.36076609	76.98256518	0.05583795	0	0
0.51	2.43696199	4.74558753	3.14004067	0.81661656	0.01738338	-0.08221944	17.20092838	-4.99234122	-8.82639331	3.30162547	-1.47282908	5.17652424	10.4865779	-19.28902259	6.97565926	4.67162728	-6.75450055	8.28957232	8.05207052	5.49708569	-16.57242242	-2.84633063	-6.72711291	-16.35946809	-21.58095615	8.34134875	46.78545969	1.4252834	0	0	4.61432365	-21.56792083	3.34266667	77.11855375	0.05902845	0	0
0.52	2.66151542	4.70652597	3.62111911	0.83449165	0.01594345	-0.08087874	16.53772684	-4.84077347	-9.50933041	4.88086533	-0.58036645	7.33414638	7.51025962	-19.92936814	6.60837987	4.68539728	-7.57583995	7.82277503	8.7233178	8.48813398	-16.8384995	-2.70566417	-7.40089959	-16.11988456	-21.02718418	7.10257198	46.04384674	1.67512582	0	0	4.1892488	-21.62712375	3.07404961	77.64900949	0.09454312	0	0
0.53	2.41465041	4.77599579	3.69936523	0.84415259	0.01362827	-0.08124686	16.66807781	-4.74732155	-9.21895881	5.61177972	-0.38276944	7.48647458	7.53232072	-20.03872484	6.57000308	4.84190273	-8.45158322	7.74050369	8.78964032	8.52281942	-16.61567814	-2.67815977	-7.40739573	-16.11156962	-21.00467822	7.09892549	46.04553719	1.67623778	0	0	4.22453787	-21.59633866	3.0724276	77.68531177	0.0952571	0	0
0.54	2.2769887	4.79416035	3.97625498	0.85595801	0.01173541	-0.08092183	16.77554081	-4.72233184	-8.92875835	5.54660967	-0.33017432	7.62194368	7.53532553	-20.19850996	6.37388084	4.99701334	-9.4399426	7.69359397	8.87598695	8.57745116	-16.34251606	-2.7237969	-7.41740924	-16.14279557	-20.98701376	7.09473511	46.02169394	1.67655488	0	0	4.18770639	-21.53553062	3.08926557	77.69620042	0.09357292	0	0
0.55	2.2558843	4.63929798	4.46996515	0.86982664	0.00991238	-0.07778323	16.83550146	-4.56379602	-9.29791274	4.74727119	0.49197482	7.80431927	5.7702365	-20.20976863	5.90045033	5.14204499	-10.88066085	7.08581161	9.47358324	14.33060442	-16.33949361	-2.40431001	-7.79892097	-15.39649053	-20.31859152	6.30203898	43.90968494	1.83215159	0	0	4.27324111	-20.69192144	2.64216545	76.89791661	0.16738204	0	0
0.56	2.23107679	4.50058034	4.57204573	0.88416141	0.00820992	-0.07459407	17.15498108	-4.36635427	-9.11439512	3.11256614	0.59278197	7.74760987	5.80102931	-20.29766593	5.60878857	5.31381428	-12.21216318	6.89905346	9.61535042	14.40901079	-16.3353479	-2.18419188	-7.73911657	-15.49617359	-20.28011135	6.31177581	43.87122396	1.82866497	0	0	3.97432319	-20.59895439	2.72566902	76.79493496	0.15718684	0	0
0.57	2.24617239	4.30384205	4.64526307	0.89937828	0.00663614	-0.07039977	17.48441646	-4.09090333	-8.8661402	1.03317108	0.46228655	7.60659299	5.81323859	-20.33616717	5.27983681	5.3699757	-13.70155833	6.70066519	9.81261996	14.55795477	-16.31721321	-1.89641197	-7.64508216	-15.50796557	-20.28386565	6.30729013	43.81350303	1.82882101	0	0	3.63362177	-20.4361507	2.83352261	76.6369946	0.14450936	0	0
0.58	2.26655777	4.03647973	4.69744343	0.91496124	0.00511223	-0.06480204	17.8379741	-3.6622989	-8.58629028	-1.17182648	0.28947424	7.25037056	5.81613633	-20.25803247	4.86880463	5.26292858	-15.39663451	6.36732942	10.0927303	14.78078156	-16.30900124	-1.52845222	-7.4792136	-15.44979789	-20.28980221	6.30154232	43.7314773	1.82989534	0	0	3.21465388	-20.23548816	2.9522384	76.3879744	0.1303586	0	0
